<svg xmlns="http://www.w3.org/2000/svg" width="1024" height="1024" viewBox="0 0 1024 1024" role="img" aria-label="喜宽 应用图标">
  <defs>
    <linearGradient id="abg" x1="0" y1="0" x2="0.5" y2="1">
      <stop offset="0" stop-color="#1e1711"/>
      <stop offset="1" stop-color="#08090a"/>
    </linearGradient>
    <radialGradient id="acenter" cx="0.47" cy="0.54" r="0.62">
      <stop offset="0" stop-color="#d97706" stop-opacity="0.22"/>
      <stop offset="1" stop-color="#d97706" stop-opacity="0"/>
    </radialGradient>
    <radialGradient id="acorner" cx="0.79" cy="0.23" r="0.52">
      <stop offset="0" stop-color="#e8890c" stop-opacity="0.34"/>
      <stop offset="1" stop-color="#e8890c" stop-opacity="0"/>
    </radialGradient>
    <linearGradient id="astar" gradientUnits="userSpaceOnUse" x1="730" y1="170" x2="930" y2="420">
      <stop offset="0" stop-color="#f9bd5e"/>
      <stop offset="1" stop-color="#c2660a"/>
    </linearGradient>
  </defs>
  <rect width="1024" height="1024" fill="url(#abg)"/>
  <rect width="1024" height="1024" fill="url(#acenter)"/>
  <rect width="1024" height="1024" fill="url(#acorner)"/>
  <path d="{{XI_PATH}}" transform="translate(203.0,728.1) scale(0.5672,-0.5672)" fill="#f4f1ec"/>
  <path d="M0,-1 C0.14,-0.26 0.26,-0.14 1,0 C0.26,0.14 0.14,0.26 0,1 C-0.14,0.26 -0.26,0.14 -1,0 C-0.26,-0.14 -0.14,-0.26 0,-1 Z"
        transform="translate(806,246) scale(84)" fill="url(#astar)"/>
  <path d="M0,-1 C0.14,-0.26 0.26,-0.14 1,0 C0.26,0.14 0.14,0.26 0,1 C-0.14,0.26 -0.26,0.14 -1,0 C-0.26,-0.14 -0.14,-0.26 0,-1 Z"
        transform="translate(882,372) scale(42)" fill="#f8b64f" fill-opacity="0.92"/>
</svg>
